<svg xmlns="http://www.w3.org/2000/svg" xmlns:xlink="http://www.w3.org/1999/xlink" viewBox="0 0 536 536"><defs><linearGradient id="ae015cf8-a252-44db-b089-eb66d49a8b19" x1="1827.6694" y1="2625.4283" x2="1974.3175" y2="2536.1916" gradientTransform="translate(2124.7701 2871.9975) rotate(180)" gradientUnits="userSpaceOnUse"><stop offset="0" stop-color="#004dbd" stop-opacity="0"/><stop offset="0.5" stop-color="#004dbd" stop-opacity="0"/><stop offset="0.5483" stop-color="#004dbd" stop-opacity="0.0434"/><stop offset="0.6241" stop-color="#004dbd" stop-opacity="0.1624"/><stop offset="0.7181" stop-color="#004dbd" stop-opacity="0.3567"/><stop offset="0.8265" stop-color="#004dbd" stop-opacity="0.6265"/><stop offset="0.9457" stop-color="#004dbd" stop-opacity="0.9674"/><stop offset="0.9564" stop-color="#004dbd"/></linearGradient><linearGradient id="bb257977-3496-4784-a940-3e6428967252" x1="21989.436" y1="2625.4283" x2="22136.0842" y2="2536.1916" gradientTransform="matrix(1, 0, 0, -1, -21748.9628, 2871.9975)" xlink:href="#ae015cf8-a252-44db-b089-eb66d49a8b19"/><linearGradient id="ed56dd87-2d57-4dcf-88a3-6641b707f8c7" x1="5568.0205" y1="-11274.3256" x2="5844.9945" y2="-11115.368" gradientTransform="matrix(0.5002, 0.8659, -0.8659, 0.5002, -12278.8713, 967.1451)" gradientUnits="userSpaceOnUse"><stop offset="0" stop-color="#2f3133"/><stop offset="0.5089" stop-color="#2f3133" stop-opacity="0"/><stop offset="1" stop-color="#2f3133" stop-opacity="0"/></linearGradient><linearGradient id="b78dd122-68e1-456f-bc7f-90e0445cb5e6" x1="5498.2115" y1="-11124.026" x2="5778.1923" y2="-11277.6257" gradientTransform="matrix(0.5002, 0.8659, -0.8659, 0.5002, -12278.8713, 967.1451)" gradientUnits="userSpaceOnUse"><stop offset="0" stop-color="#3a3b40"/><stop offset="0.2129" stop-color="#3a3b40" stop-opacity="0.6533"/><stop offset="0.4985" stop-color="#3a3b40" stop-opacity="0.2931"/><stop offset="0.7672" stop-color="#3a3b40" stop-opacity="0.0748"/><stop offset="1" stop-color="#3a3b40" stop-opacity="0"/></linearGradient><linearGradient id="f20f33d0-05c6-4702-bd8b-e631d997f5b4" x1="4017.0308" y1="-8783.1524" x2="4297.0097" y2="-8936.751" gradientTransform="matrix(0.4997, 0.8662, -0.8662, 0.4997, -9464.6894, 992.1194)" gradientUnits="userSpaceOnUse"><stop offset="0" stop-color="#575860"/><stop offset="0.1356" stop-color="#575860" stop-opacity="0.7717"/><stop offset="0.3723" stop-color="#575860" stop-opacity="0.4368"/><stop offset="0.6006" stop-color="#575860" stop-opacity="0.1955"/><stop offset="0.8146" stop-color="#575860" stop-opacity="0.0499"/><stop offset="1" stop-color="#575860" stop-opacity="0"/></linearGradient><linearGradient id="f2e5705c-4cb2-4cdf-a30f-03299defca9b" x1="516.4108" y1="-2577.4476" x2="673.9819" y2="-2728.449" gradientTransform="matrix(0.5028, -0.868, 0.8653, 0.5012, 2280.1319, 2071.3281)" gradientUnits="userSpaceOnUse"><stop offset="0.297" stop-color="#3e8dff"/><stop offset="0.342" stop-color="#3e8dff" stop-opacity="0.889"/><stop offset="0.4451" stop-color="#3e8dff" stop-opacity="0.6566"/><stop offset="0.5479" stop-color="#3e8dff" stop-opacity="0.4561"/><stop offset="0.648" stop-color="#3e8dff" stop-opacity="0.2922"/><stop offset="0.745" stop-color="#3e8dff" stop-opacity="0.1648"/><stop offset="0.8378" stop-color="#3e8dff" stop-opacity="0.0737"/><stop offset="0.9248" stop-color="#3e8dff" stop-opacity="0.0188"/><stop offset="1" stop-color="#3e8dff" stop-opacity="0"/></linearGradient></defs><g id="b7b8ac49-4de5-4fc4-ac82-dc0768c3cb3d" data-name="Assets"><path d="M305.3786,457.755,453.0632,201.9579c16.2629-28.1682-4.0658-63.3785-36.5917-63.3785H121.1023c-32.5258,0-52.8545,35.21-36.5916,63.3785L232.1953,457.755C248.4583,485.9233,289.1156,485.9233,305.3786,457.755Z" fill="url(#ae015cf8-a252-44db-b089-eb66d49a8b19)"/><path d="M232.1953,457.755,84.5107,201.9579c-16.2629-28.1682,4.0658-63.3785,36.5916-63.3785H416.4715c32.5259,0,52.8546,35.21,36.5917,63.3785L305.3786,457.755C289.1156,485.9233,248.4583,485.9233,232.1953,457.755Z" fill="url(#bb257977-3496-4784-a940-3e6428967252)"/><path d="M416.442,138.5377l-295.33.07c-32.542.0077-52.8724,35.24-36.5947,63.4186L232.2431,457.7534c16.2777,28.1782,56.955,28.1685,73.2193-.0174L453.0666,201.9389C469.3309,173.7529,448.9839,138.53,416.442,138.5377Z" fill="url(#ed56dd87-2d57-4dcf-88a3-6641b707f8c7)"/><path d="M416.442,138.5377l-295.33.07c-32.542.0077-52.8724,35.24-36.5947,63.4186L232.2431,457.7534c16.2777,28.1782,56.955,28.1685,73.2193-.0174L453.0666,201.9389C469.3309,173.7529,448.9839,138.53,416.442,138.5377Z" fill="url(#b78dd122-68e1-456f-bc7f-90e0445cb5e6)"/><path d="M463.2939,57.2078l-295.3286-.089c-32.5419-.01-52.8911,35.2116-36.6286,63.3985L278.9243,376.3228c16.2625,28.1868,56.94,28.199,73.219.022L499.8842,120.6283C516.1636,92.4512,495.8356,57.2176,463.2939,57.2078Z" fill="url(#f20f33d0-05c6-4702-bd8b-e631d997f5b4)"/><path d="M162.5664,173.7l85.323,148.7313a23.3185,23.3185,0,0,0,40.4045.0843L374.438,173.7943a23.3186,23.3186,0,0,0-20.1766-35.0063l-171.4671-.01A23.3185,23.3185,0,0,0,162.5664,173.7Z" fill="url(#f2e5705c-4cb2-4cdf-a30f-03299defca9b)"/><rect x="-0.2572" width="536" height="536" fill="none"/></g></svg>